C:/Program Files/Krita (x64)/bin/ffmpeg.exe -hide_banner -y -y -r 6 -start_number 0 -start_number_range 1 -i C:/Users/bbybe/Desktop/slime/frame%04d.png -i C:/Users/bbybe/Desktop/slime/KritaTempPalettegen_%06d.png -lavfi [0:v][1:v]paletteuse=dither=sierra2_4a:diff_mode=none -f gif -loop 0 -gifflags +transdiff C:/Users/bbybe/Desktop/slime/sprite.gif
=====================================================
Input #0, image2, from 'C:/Users/bbybe/Desktop/slime/frame%04d.png':
  Duration: 00:00:00.48, start: 0.000000, bitrate: N/A
  Stream #0:0: Video: png, rgba(pc), 1756x1240 [SAR 11811:11811 DAR 439:310], 25 fps, 25 tbr, 25 tbn, 25 tbc
Input #1, image2, from 'C:/Users/bbybe/Desktop/slime/KritaTempPalettegen_%06d.png':
  Duration: 00:00:00.04, start: 0.000000, bitrate: N/A
  Stream #1:0: Video: png, rgba(pc), 16x16 [SAR 1:1 DAR 1:1], 25 fps, 25 tbr, 25 tbn, 25 tbc
Stream mapping:
  Stream #0:0 (png) -> paletteuse:default
  Stream #1:0 (png) -> paletteuse:palette
  paletteuse -> Stream #0:0 (gif)
Press [q] to stop, [?] for help
[image2 @ 000001963088b8c0] Thread message queue blocking; consider raising the thread_queue_size option (current value: 8)
Output #0, gif, to 'C:/Users/bbybe/Desktop/slime/sprite.gif':
  Metadata:
    encoder         : Lavf58.76.100
  Stream #0:0: Video: gif, pal8(pc, gbr/unknown/unknown, progressive), 1756x1240 [SAR 1:1 DAR 439:310], q=2-31, 200 kb/s, 6 fps, 100 tbn (default)
    Metadata:
      encoder         : Lavc58.134.100 gif
frame=    1 fps=0.0 q=-0.0 size=       0kB time=00:00:00.01 bitrate=   0.0kbits/s speed=0.0903x    frame=    4 fps=0.0 q=-0.0 size=     236kB time=00:00:00.51 bitrate=3788.8kbits/s speed=0.59x    frame=    6 fps=3.8 q=-0.0 size=     256kB time=00:00:00.84 bitrate=2496.6kbits/s speed=0.525x    frame=    9 fps=4.3 q=-0.0 size=     512kB time=00:00:01.34 bitrate=3130.1kbits/s speed=0.633x    frame=   12 fps=4.3 q=-0.0 size=     768kB time=00:00:01.84 bitrate=3419.3kbits/s speed=0.655x    frame=   12 fps=3.9 q=-0.0 Lsize=     949kB time=00:00:01.84 bitrate=4225.5kbits/s speed=0.592x    
video:949kB audio:0kB subtitle:0kB other streams:0kB global headers:0kB muxing overhead: 0.002058%
